<svg width="2502" height="1408" viewBox="0 0 2502 1408" fill="none" xmlns="http://www.w3.org/2000/svg">
<rect width="2502" height="1408" fill="#1E1E1E"/>
<rect width="2502" height="1408" fill="white"/>
<path d="M719 568C743.533 568 762.6 573.867 776.2 585.6C790.067 597.333 797 616 797 641.6C797 657.6 793.667 671.733 787 684C780.333 696 771.133 705.333 759.4 712C747.667 718.4 734.2 721.6 719 721.6H656.2V808H623V568H719ZM719 689.6C733.133 689.6 744.067 685.2 751.8 676.4C759.8 667.6 763.8 656 763.8 641.6C763.8 627.733 759.933 617.2 752.2 610C744.733 602.8 733.667 599.2 719 599.2H656.2V689.6H719ZM874.019 630C895.619 630 913.085 636.267 926.419 648.8C939.752 661.333 946.419 679.067 946.419 702V808H921.219L913.219 786C899.885 802 881.885 810 859.219 810C841.885 810 827.219 805.6 815.219 796.8C803.219 787.733 797.219 774.533 797.219 757.2C797.219 739.6 803.885 725.867 817.219 716C830.819 706.133 849.619 701.2 873.619 701.2H913.219C913.219 672.4 900.152 658 874.019 658C863.619 658 854.552 660.533 846.819 665.6C839.352 670.667 835.619 677.333 835.619 685.6H803.219C803.219 675.467 806.285 666.267 812.419 658C818.819 649.467 827.352 642.667 838.019 637.6C848.952 632.533 860.952 630 874.019 630ZM828.419 755.2C828.419 762.667 831.619 769.067 838.019 774.4C844.685 779.733 854.019 782.4 866.019 782.4C875.085 782.4 883.219 780.533 890.419 776.8C897.619 772.8 903.219 768 907.219 762.4C911.219 756.533 913.219 750.667 913.219 744.8V726.4H872.019C858.152 726.4 847.352 729.333 839.619 735.2C832.152 740.8 828.419 747.467 828.419 755.2ZM964.406 632H998.006V718C998.006 738.8 1001.87 754.4 1009.61 764.8C1017.34 775.2 1029.21 780.4 1045.21 780.4C1060.14 780.4 1071.07 775.333 1078.01 765.2C1084.94 754.8 1088.41 739.067 1088.41 718V632H1120.41V790C1120.41 809.2 1116.54 824.933 1108.81 837.2C1101.34 849.467 1091.61 858.267 1079.61 863.6C1067.61 869.2 1054.81 872 1041.21 872C1018.81 872 1000.54 866.933 986.406 856.8C972.54 846.667 965.606 832.267 965.606 813.6H998.006C998.273 821.867 1002.27 828.8 1010.01 834.4C1017.74 840.267 1028.14 843.2 1041.21 843.2C1056.94 843.2 1068.67 838.8 1076.41 830C1084.41 821.2 1088.41 805.867 1088.41 784C1087.34 787.2 1084.67 790.933 1080.41 795.2C1076.14 799.2 1070.81 802.667 1064.41 805.6C1058.27 808.533 1051.87 810 1045.21 810C1020.41 810 1000.67 802.4 986.006 787.2C971.606 772 964.406 750.4 964.406 722.4V632ZM1224.63 780.8C1235.56 780.8 1245.56 778 1254.63 772.4C1263.69 766.8 1269.83 759.467 1273.03 750.4H1306.23C1301.16 768.8 1290.89 783.333 1275.43 794C1259.96 804.667 1243.03 810 1224.63 810C1208.36 810 1193.69 806.4 1180.63 799.2C1167.56 792 1157.29 781.6 1149.83 768C1142.36 754.4 1138.63 738.4 1138.63 720C1138.63 701.6 1142.36 685.6 1149.83 672C1157.29 658.4 1167.56 648 1180.63 640.8C1193.69 633.6 1208.36 630 1224.63 630C1244.63 630 1261.96 635.333 1276.63 646C1291.29 656.4 1301.16 670.933 1306.23 689.6H1273.03C1269.83 680.533 1263.69 673.2 1254.63 667.6C1245.56 662 1235.56 659.2 1224.63 659.2C1209.16 659.2 1196.09 664.8 1185.42 676C1175.03 686.933 1169.83 701.6 1169.83 720C1169.83 738.4 1175.03 753.2 1185.42 764.4C1196.09 775.333 1209.16 780.8 1224.63 780.8ZM1357.37 654C1370.71 638 1390.44 630 1416.57 630V662.8C1400.57 662.8 1388.31 664.533 1379.77 668C1371.51 671.467 1365.64 677.333 1362.17 685.6C1358.97 693.6 1357.37 704.933 1357.37 719.6V808H1324.17V632H1349.37L1357.37 654ZM1424.56 632H1458.16V718C1458.16 738.8 1462.03 754.4 1469.76 764.8C1477.5 775.2 1489.36 780.4 1505.36 780.4C1520.3 780.4 1531.23 775.333 1538.16 765.2C1545.1 754.8 1548.56 739.067 1548.56 718V632H1580.56V790C1580.56 809.2 1576.7 824.933 1568.96 837.2C1561.5 849.467 1551.76 858.267 1539.76 863.6C1527.76 869.2 1514.96 872 1501.36 872C1478.96 872 1460.7 866.933 1446.56 856.8C1432.7 846.667 1425.76 832.267 1425.76 813.6H1458.16C1458.43 821.867 1462.43 828.8 1470.16 834.4C1477.9 840.267 1488.3 843.2 1501.36 843.2C1517.1 843.2 1528.83 838.8 1536.56 830C1544.56 821.2 1548.56 805.867 1548.56 784C1547.5 787.2 1544.83 790.933 1540.56 795.2C1536.3 799.2 1530.96 802.667 1524.56 805.6C1518.43 808.533 1512.03 810 1505.36 810C1480.56 810 1460.83 802.4 1446.16 787.2C1431.76 772 1424.56 750.4 1424.56 722.4V632ZM1736.24 715.6C1736.24 697.467 1731.71 683.2 1722.64 672.8C1713.57 662.133 1701.04 656.8 1685.04 656.8C1670.64 656.8 1659.17 662.133 1650.64 672.8C1642.11 683.2 1637.84 697.467 1637.84 715.6C1637.84 736.133 1642.11 752 1650.64 763.2C1659.17 774.4 1670.64 780 1685.04 780C1701.04 780 1713.57 774.4 1722.64 763.2C1731.71 752 1736.24 736.133 1736.24 715.6ZM1604.64 632H1633.84L1637.84 652C1643.71 645.067 1651.31 639.333 1660.64 634.8C1669.97 630.267 1680.77 628 1693.04 628C1706.64 628 1719.17 631.333 1730.64 638C1742.37 644.4 1751.84 654.267 1759.04 667.6C1766.24 680.667 1769.84 696.667 1769.84 715.6C1769.84 735.6 1766.11 752.8 1758.64 767.2C1751.44 781.333 1741.71 792 1729.44 799.2C1717.17 806.4 1703.71 810 1689.04 810C1681.04 810 1673.31 808.533 1665.84 805.6C1658.37 802.667 1652.11 799.2 1647.04 795.2C1641.97 790.933 1638.91 787.2 1637.84 784V872H1604.64V632ZM1840.98 662V757.6C1840.98 765.6 1841.38 770.8 1842.18 773.2C1843.25 775.6 1845.78 777.067 1849.78 777.6C1853.78 778.133 1862.18 778.4 1874.98 778.4V808C1855.78 808 1841.91 807.2 1833.38 805.6C1825.11 804 1818.71 799.733 1814.18 792.8C1809.91 785.6 1807.78 773.867 1807.78 757.6V662H1773.78V632H1807.78V590H1840.98V632H1874.98V662H1840.98Z" fill="black"/>
</svg>
