<svg width="1894" height="547" viewBox="0 0 1894 547" fill="none" xmlns="http://www.w3.org/2000/svg">
<rect width="1894" height="547" fill="#1E1E1E"/>
<rect width="1894" height="547" fill="#EBEBEB"/>
<path d="M1904.52 272H1950V381.385H1904.52V418.094H1859.04V454.466H1813.15V490.838H1859.04V527.547H1904.52V563.919H1950V637H1859.13V600.628H1813.23V563.919H1721.85V600.628H1676.38V637H1585V563.919H1630.9V527.547H1676.38V490.838H1721.85V454.466H1676.38V418.094H1630.9V381.385H1585V272H1676.38V345.081H1721.85V381.453H1813.23V345.081H1859.13V272H1904.61H1904.52Z" fill="black"/>
<path d="M725.187 546.998H468.862L201.253 338.691V288.072H376.896L725.187 546.998Z" fill="black"/>
<path d="M201.253 465.863V547H51V406.028H124.304L201.253 465.863Z" fill="black"/>
<path d="M725.187 181.176V297.63H588.388L511.742 253.311L376.983 175.218H201.427L51 0H376.896L714.814 175.218L725.187 181.176Z" fill="black"/>
</svg>
