<svg width="5500" height="3094" viewBox="0 0 5500 3094" fill="none" xmlns="http://www.w3.org/2000/svg">
<rect width="5500" height="3094" fill="white"/>
<path d="M2331.79 1086.13L2407.88 1161.21L1898 1162.2C1984.17 1122.68 2223.1 1095.02 2331.79 1086.13Z" fill="#0A41CB"/>
<path d="M2348.59 1221.48L2407.88 1161.21H1903.93C1954.52 1177.81 2237.26 1213.91 2348.59 1221.48Z" fill="#01256C"/>
<path d="M2637.13 933L2407.88 1161.21L2330.81 1086.13C2464.96 934.908 2423.25 933 2637.13 933Z" fill="#4BB3F4"/>
<path d="M2534.36 1287.67L2407.88 1161.21L2348.59 1221.48L2349.58 1287.67H2534.36Z" fill="#F4F3E7"/>
<path d="M2353.53 1468.47L2349.58 1287.67H2533.37L2353.53 1468.47Z" fill="#FFB568"/>
<path d="M2822.9 1889.33L2677.65 1744.1L2612.43 1840.92L2674.68 1913.04C2717.37 1936.75 2763.94 1935.76 2780.41 1931.81L2692.47 2019.74H2614.4L2612.43 2084.94H2888.12L2917.76 2019.74H2777.45L2868.36 1930.82L2822.9 1889.33Z" fill="#002868"/>
<path d="M2640.09 1872.53L2673.69 1912.05L2580.81 2019.74H2640.09L2632.19 2085.93H2389.11L2365.39 2023.69H2487.92L2640.09 1872.53Z" fill="#002868"/>
<path d="M2610.45 1162.55L2744.75 1287.67L2910.85 1289.65V1094.04L2610.45 1162.55Z" fill="#03256A"/>
<path d="M2595.63 1350.9L2694.44 1252.11L2610.45 1161.21H2407.88L2595.63 1350.9Z" fill="#1E98F3"/>
<path d="M2910.85 1289.65L2803.14 1165.17L2727.05 1285.69L2910.85 1289.65Z" fill="#F1F3E7"/>
<path d="M2803.14 1166.16L2607.49 1163.19L2728.04 1285.7L2803.14 1166.16Z" fill="#FFB769"/>
<path d="M2816.97 1587.02L2926.66 1476.37L2695.43 1252.11L2595.63 1350.9L2816.97 1587.02Z" fill="#4BB9FC"/>
<path d="M2925.67 1476.37L3000.77 1389.43L2910.84 1289.65L2725.07 1285.7L2925.67 1476.37Z" fill="#DAEAF5"/>
<path d="M2925.67 1476.37L3001.75 1390.42C3148.07 1539.1 3133.75 1549.41 3129.23 1677.91L2925.67 1476.37Z" fill="#0A41CB"/>
<path d="M2817.96 1586.03L2925.67 1476.37L3127.25 1674.94L3108.47 1752.99L2979.03 1751.02L2817.96 1586.03Z" fill="#1E98F3"/>
<path d="M3155.87 2000.3L3155.91 1998.99L3041.28 1877.47L2902.94 1866.61L3151.95 2106.68L3155.86 2000.29L3155.87 2000.3Z" fill="#1C99F2"/>
<path d="M3155.9 1875.5V1998.99L3045.23 1881.42L3155.9 1875.5Z" fill="#0B3FCB"/>
<path d="M3109.46 1752.99L3128.24 1676.92L3397.01 1861.67C3200.23 1867.39 2942.16 1900.52 2905.91 1865.62C2827.73 1791.26 2824.64 1777.42 2787.33 1745.09L3109.46 1752.99Z" fill="#03256A"/>
<path d="M2979.03 1750.03L2818.95 1586.03L2717.17 1679.88L2789.3 1747.06L2979.03 1750.03Z" fill="#0A41C9"/>
<path d="M2724.09 1679.88L2818.95 1585.04L2594.64 1348.92C2524.28 1406.62 2524.81 1482.95 2537.33 1505.02L2724.09 1679.88Z" fill="#1E98F3"/>
<path d="M2535.35 1287.67L2595.63 1349.91C2526.85 1399.7 2539.3 1486.25 2549.19 1546.51L2352.54 1543.55V1468.47L2535.35 1287.67Z" fill="#FF7D37"/>
<path d="M2373.3 1611.74C2373.3 1611.74 2349.58 1575.14 2352.55 1543.55L2542.27 1548.51L2538.32 1777.71L2373.3 1611.74Z" fill="#FFB669"/>
<path d="M2612.43 1841.91L2677.64 1743.11L2539.3 1615.67V1777.69L2612.43 1841.91Z" fill="#FD7E39"/>
<path d="M2678.63 1745.09L2724.09 1679.88L2543.26 1507.98L2539.3 1616.66L2678.63 1745.09Z" fill="#D9663A"/>
<path d="M2724.09 1679.88L3204.32 2158.05C3141.08 2169.9 3073.56 2136.64 3053.14 2118.53L2678.63 1745.09L2724.09 1679.88Z" fill="#D54730"/>
<path d="M3151.95 2106.68L3155.91 1998.99L3322.9 2159.04H3205.31L3151.95 2106.68Z" fill="#0743C7"/>
<path d="M2575.87 1093.02L2606.51 1163.16H2794.25L2909.86 1093.03L2575.87 1093.02Z" fill="#03256A"/>
<path d="M2606.5 1163.19L2575.87 1093.05L2407.88 1161.21L2606.5 1163.19Z" fill="#03256A"/>
<path d="M2585.75 1092.06L2504.72 1090.08H2478.04L2407.88 1161.21L2585.75 1092.06Z" fill="#03256A"/>
<path d="M2841.68 965.602L2841.65 965.628C2833.24 961.241 2784.4 935.874 2766.17 933.988L2637.13 933L2521.52 1047.6C2566.85 1044.91 2571.69 1080.2 2574.88 1094.03L2733.27 1096.01L2841.65 965.628C2843.22 966.447 2843.39 966.535 2841.68 965.602Z" fill="#1E98F3"/>
<path d="M2718.16 1094.03L2841.53 965.602C2915.03 1007.17 2909.77 1037.17 2909.77 1094.03H2718.16Z" fill="#0A41CB"/>
<path d="M2574.88 1094.03L2478.04 1091.07L2520.53 1048.59C2546.22 1036.74 2581.79 1062.42 2574.88 1094.03Z" fill="#03256A"/>
<path d="M2534.36 1103.91C2525.09 1103.91 2517.57 1096.39 2517.57 1087.12C2517.57 1077.84 2525.09 1070.32 2534.36 1070.32C2543.64 1070.32 2551.16 1077.84 2551.16 1087.12C2551.16 1096.39 2543.64 1103.91 2534.36 1103.91Z" fill="white"/>
</svg>
