<svg width="2500" height="1400" viewBox="0 0 2500 1400" fill="none" xmlns="http://www.w3.org/2000/svg">
<rect width="2500" height="1400" fill="#1E1E1E"/>
<rect width="2500" height="1400" fill="white"/>
<path d="M718 564C742.533 564 761.6 569.867 775.2 581.6C789.067 593.333 796 612 796 637.6C796 653.6 792.667 667.733 786 680C779.333 692 770.133 701.333 758.4 708C746.667 714.4 733.2 717.6 718 717.6H655.2V804H622V564H718ZM718 685.6C732.133 685.6 743.067 681.2 750.8 672.4C758.8 663.6 762.8 652 762.8 637.6C762.8 623.733 758.933 613.2 751.2 606C743.733 598.8 732.667 595.2 718 595.2H655.2V685.6H718ZM873.019 626C894.619 626 912.085 632.267 925.419 644.8C938.752 657.333 945.419 675.067 945.419 698V804H920.219L912.219 782C898.885 798 880.885 806 858.219 806C840.885 806 826.219 801.6 814.219 792.8C802.219 783.733 796.219 770.533 796.219 753.2C796.219 735.6 802.885 721.867 816.219 712C829.819 702.133 848.619 697.2 872.619 697.2H912.219C912.219 668.4 899.152 654 873.019 654C862.619 654 853.552 656.533 845.819 661.6C838.352 666.667 834.619 673.333 834.619 681.6H802.219C802.219 671.467 805.285 662.267 811.419 654C817.819 645.467 826.352 638.667 837.019 633.6C847.952 628.533 859.952 626 873.019 626ZM827.419 751.2C827.419 758.667 830.619 765.067 837.019 770.4C843.685 775.733 853.019 778.4 865.019 778.4C874.085 778.4 882.219 776.533 889.419 772.8C896.619 768.8 902.219 764 906.219 758.4C910.219 752.533 912.219 746.667 912.219 740.8V722.4H871.019C857.152 722.4 846.352 725.333 838.619 731.2C831.152 736.8 827.419 743.467 827.419 751.2ZM963.406 628H997.006V714C997.006 734.8 1000.87 750.4 1008.61 760.8C1016.34 771.2 1028.21 776.4 1044.21 776.4C1059.14 776.4 1070.07 771.333 1077.01 761.2C1083.94 750.8 1087.41 735.067 1087.41 714V628H1119.41V786C1119.41 805.2 1115.54 820.933 1107.81 833.2C1100.34 845.467 1090.61 854.267 1078.61 859.6C1066.61 865.2 1053.81 868 1040.21 868C1017.81 868 999.54 862.933 985.406 852.8C971.54 842.667 964.606 828.267 964.606 809.6H997.006C997.273 817.867 1001.27 824.8 1009.01 830.4C1016.74 836.267 1027.14 839.2 1040.21 839.2C1055.94 839.2 1067.67 834.8 1075.41 826C1083.41 817.2 1087.41 801.867 1087.41 780C1086.34 783.2 1083.67 786.933 1079.41 791.2C1075.14 795.2 1069.81 798.667 1063.41 801.6C1057.27 804.533 1050.87 806 1044.21 806C1019.41 806 999.673 798.4 985.006 783.2C970.606 768 963.406 746.4 963.406 718.4V628ZM1223.63 776.8C1234.56 776.8 1244.56 774 1253.63 768.4C1262.69 762.8 1268.83 755.467 1272.03 746.4H1305.23C1300.16 764.8 1289.89 779.333 1274.43 790C1258.96 800.667 1242.03 806 1223.63 806C1207.36 806 1192.69 802.4 1179.63 795.2C1166.56 788 1156.29 777.6 1148.83 764C1141.36 750.4 1137.63 734.4 1137.63 716C1137.63 697.6 1141.36 681.6 1148.83 668C1156.29 654.4 1166.56 644 1179.63 636.8C1192.69 629.6 1207.36 626 1223.63 626C1243.63 626 1260.96 631.333 1275.63 642C1290.29 652.4 1300.16 666.933 1305.23 685.6H1272.03C1268.83 676.533 1262.69 669.2 1253.63 663.6C1244.56 658 1234.56 655.2 1223.63 655.2C1208.16 655.2 1195.09 660.8 1184.42 672C1174.03 682.933 1168.83 697.6 1168.83 716C1168.83 734.4 1174.03 749.2 1184.42 760.4C1195.09 771.333 1208.16 776.8 1223.63 776.8ZM1356.37 650C1369.71 634 1389.44 626 1415.57 626V658.8C1399.57 658.8 1387.31 660.533 1378.77 664C1370.51 667.467 1364.64 673.333 1361.17 681.6C1357.97 689.6 1356.37 700.933 1356.37 715.6V804H1323.17V628H1348.37L1356.37 650ZM1423.56 628H1457.16V714C1457.16 734.8 1461.03 750.4 1468.76 760.8C1476.5 771.2 1488.36 776.4 1504.36 776.4C1519.3 776.4 1530.23 771.333 1537.16 761.2C1544.1 750.8 1547.56 735.067 1547.56 714V628H1579.56V786C1579.56 805.2 1575.7 820.933 1567.96 833.2C1560.5 845.467 1550.76 854.267 1538.76 859.6C1526.76 865.2 1513.96 868 1500.36 868C1477.96 868 1459.7 862.933 1445.56 852.8C1431.7 842.667 1424.76 828.267 1424.76 809.6H1457.16C1457.43 817.867 1461.43 824.8 1469.16 830.4C1476.9 836.267 1487.3 839.2 1500.36 839.2C1516.1 839.2 1527.83 834.8 1535.56 826C1543.56 817.2 1547.56 801.867 1547.56 780C1546.5 783.2 1543.83 786.933 1539.56 791.2C1535.3 795.2 1529.96 798.667 1523.56 801.6C1517.43 804.533 1511.03 806 1504.36 806C1479.56 806 1459.83 798.4 1445.16 783.2C1430.76 768 1423.56 746.4 1423.56 718.4V628ZM1735.24 711.6C1735.24 693.467 1730.71 679.2 1721.64 668.8C1712.57 658.133 1700.04 652.8 1684.04 652.8C1669.64 652.8 1658.17 658.133 1649.64 668.8C1641.11 679.2 1636.84 693.467 1636.84 711.6C1636.84 732.133 1641.11 748 1649.64 759.2C1658.17 770.4 1669.64 776 1684.04 776C1700.04 776 1712.57 770.4 1721.64 759.2C1730.71 748 1735.24 732.133 1735.24 711.6ZM1603.64 628H1632.84L1636.84 648C1642.71 641.067 1650.31 635.333 1659.64 630.8C1668.97 626.267 1679.77 624 1692.04 624C1705.64 624 1718.17 627.333 1729.64 634C1741.37 640.4 1750.84 650.267 1758.04 663.6C1765.24 676.667 1768.84 692.667 1768.84 711.6C1768.84 731.6 1765.11 748.8 1757.64 763.2C1750.44 777.333 1740.71 788 1728.44 795.2C1716.17 802.4 1702.71 806 1688.04 806C1680.04 806 1672.31 804.533 1664.84 801.6C1657.37 798.667 1651.11 795.2 1646.04 791.2C1640.97 786.933 1637.91 783.2 1636.84 780V868H1603.64V628ZM1839.98 658V753.6C1839.98 761.6 1840.38 766.8 1841.18 769.2C1842.25 771.6 1844.78 773.067 1848.78 773.6C1852.78 774.133 1861.18 774.4 1873.98 774.4V804C1854.78 804 1840.91 803.2 1832.38 801.6C1824.11 800 1817.71 795.733 1813.18 788.8C1808.91 781.6 1806.78 769.867 1806.78 753.6V658H1772.78V628H1806.78V586H1839.98V628H1873.98V658H1839.98Z" fill="black"/>
</svg>
