<svg width="2300" height="2300" viewBox="0 0 2300 2300" fill="none" xmlns="http://www.w3.org/2000/svg">
<rect width="2300" height="2300" fill="white"/>
<path d="M897.036 846.48L957.905 906.535L550 907.325C618.933 875.718 810.079 853.592 897.036 846.48Z" fill="#0A41CB"/>
<path d="M910.474 954.737L957.905 906.535H554.743C595.217 919.81 821.41 948.679 910.474 954.737Z" fill="#01256C"/>
<path d="M1141.3 724L957.905 906.535L896.245 846.48C1003.57 725.526 970.201 724 1141.3 724Z" fill="#4BB3F4"/>
<path d="M1059.09 1007.68L957.905 906.535L910.475 954.737L911.265 1007.68H1059.09Z" fill="#F4F3E7"/>
<path d="M914.427 1152.28L911.265 1007.68H1058.3L914.427 1152.28Z" fill="#FFB568"/>
<path d="M1289.92 1488.91L1173.71 1372.75L1121.54 1450.19L1171.34 1507.87C1205.49 1526.84 1242.75 1526.05 1255.93 1522.88L1185.57 1593.21H1123.12L1121.54 1645.36H1342.09L1365.81 1593.21H1253.56L1326.28 1522.09L1289.92 1488.91Z" fill="#002868"/>
<path d="M1143.68 1475.47L1170.55 1507.08L1096.25 1593.21H1143.68L1137.35 1646.15H942.885L923.913 1596.37H1021.94L1143.68 1475.47Z" fill="#002868"/>
<path d="M1119.96 907.602L1227.4 1007.68L1360.28 1009.26V852.801L1119.96 907.602Z" fill="#03256A"/>
<path d="M1108.1 1058.25L1187.15 979.233L1119.96 906.535H957.905L1108.1 1058.25Z" fill="#1E98F3"/>
<path d="M1360.28 1009.26L1274.11 909.695L1213.24 1006.1L1360.28 1009.26Z" fill="#F1F3E7"/>
<path d="M1274.11 910.486L1117.59 908.115L1214.03 1006.1L1274.11 910.486Z" fill="#FFB769"/>
<path d="M1285.18 1247.11L1372.92 1158.61L1187.94 979.232L1108.1 1058.25L1285.18 1247.11Z" fill="#4BB9FC"/>
<path d="M1372.13 1158.61L1432.21 1089.07L1360.28 1009.26L1211.66 1006.1L1372.13 1158.61Z" fill="#DAEAF5"/>
<path d="M1372.13 1158.61L1433 1089.86C1550.05 1208.78 1538.6 1217.02 1534.99 1319.81L1372.13 1158.61Z" fill="#0A41CB"/>
<path d="M1285.97 1246.32L1372.13 1158.61L1533.4 1317.43L1518.38 1379.86L1414.82 1378.28L1285.97 1246.32Z" fill="#1E98F3"/>
<path d="M1556.29 1577.67L1556.32 1576.62L1464.62 1479.42L1353.95 1470.73L1553.16 1662.75L1556.29 1577.66L1556.29 1577.67Z" fill="#1C99F2"/>
<path d="M1556.32 1477.84V1576.62L1467.79 1482.58L1556.32 1477.84Z" fill="#0B3FCB"/>
<path d="M1519.17 1379.86L1534.19 1319.02L1749.21 1466.78C1591.78 1471.36 1385.33 1497.86 1356.32 1469.94C1293.78 1410.47 1291.31 1399.4 1261.46 1373.54L1519.17 1379.86Z" fill="#03256A"/>
<path d="M1414.82 1377.49L1286.76 1246.32L1205.34 1321.39L1263.04 1375.12L1414.82 1377.49Z" fill="#0A41C9"/>
<path d="M1210.87 1321.39L1286.76 1245.53L1107.31 1056.67C1051.03 1102.82 1051.45 1163.87 1061.46 1181.52L1210.87 1321.39Z" fill="#1E98F3"/>
<path d="M1059.88 1007.68L1108.1 1057.46C1053.08 1097.29 1063.04 1166.51 1070.95 1214.71L913.637 1212.34V1152.28L1059.88 1007.68Z" fill="#FF7D37"/>
<path d="M930.238 1266.88C930.238 1266.88 911.265 1237.61 913.637 1212.34L1065.42 1216.31L1062.25 1399.63L930.238 1266.88Z" fill="#FFB669"/>
<path d="M1121.54 1450.98L1173.71 1371.96L1063.04 1270.02V1399.62L1121.54 1450.98Z" fill="#FD7E39"/>
<path d="M1174.51 1373.54L1210.87 1321.39L1066.21 1183.89L1063.04 1270.81L1174.51 1373.54Z" fill="#D9663A"/>
<path d="M1210.87 1321.39L1595.06 1703.84C1544.47 1713.32 1490.45 1686.72 1474.11 1672.23L1174.51 1373.54L1210.87 1321.39Z" fill="#D54730"/>
<path d="M1553.16 1662.75L1556.32 1576.62L1689.92 1704.63H1595.85L1553.16 1662.75Z" fill="#0743C7"/>
<path d="M1092.3 851.994L1116.8 908.094H1267L1359.49 852.001L1092.3 851.994Z" fill="#03256A"/>
<path d="M1116.8 908.115L1092.29 852.012L957.905 906.535L1116.8 908.115Z" fill="#03256A"/>
<path d="M1100.2 851.221L1035.38 849.641H1014.03L957.905 906.535L1100.2 851.221Z" fill="#03256A"/>
<path d="M1304.94 750.076L1304.92 750.097C1298.19 746.588 1259.12 726.299 1244.54 724.79L1141.3 724L1048.81 815.662C1085.08 813.514 1088.96 841.739 1091.5 852.801L1218.21 854.382L1304.92 750.097C1306.18 750.752 1306.31 750.822 1304.94 750.076Z" fill="#1E98F3"/>
<path d="M1206.13 852.801L1304.82 750.076C1363.62 783.325 1359.42 807.32 1359.42 852.801H1206.13Z" fill="#0A41CB"/>
<path d="M1091.5 852.799L1014.03 850.429L1048.02 816.449C1068.58 806.971 1097.04 827.515 1091.5 852.799Z" fill="#03256A"/>
<path d="M1059.09 860.702C1051.67 860.702 1045.65 854.688 1045.65 847.269C1045.65 839.85 1051.67 833.836 1059.09 833.836C1066.51 833.836 1072.53 839.85 1072.53 847.269C1072.53 854.688 1066.51 860.702 1059.09 860.702Z" fill="white"/>
</svg>
